<?xml version="1.0" encoding="utf-8"?>
<!-- Generator: Adobe Illustrator 19.2.1, SVG Export Plug-In . SVG Version: 6.00 Build 0)  -->
<svg version="1.1" id="Capa_1" xmlns="http://www.w3.org/2000/svg" xmlns:xlink="http://www.w3.org/1999/xlink" x="0px" y="0px"
	 viewBox="0 0 1400 980" enable-background="new 0 0 1400 980" xml:space="preserve">
<g>
	<path fill="#151D38" d="M1027.3,720.9c-7.1-4.7-13.7-10-20.2-15.4c-20.6-17.1-39.5-35.9-57.6-55.6c-27.8-30.2-53.7-62-78.2-95
		c-2.3-3.1-4.6-6.3-5.4-10.2c-0.1-0.6-0.5-1.5-0.8-1.4c-1.4,0.6-1.8-0.8-2.8-1c-0.3-0.1-0.4,0.3-0.4,0.6c0,1,0,1.9,0,2.9
		c0,83,0,165.9,0,248.9c0,4.6,0.7,4-4,4c-104.9,0-209.8,0-314.7,0c-1.2,0-2.9-0.7-3.4,0.5c-0.4,0.8,1.4,1.7,2.2,2.4
		c28.3,25.6,59.8,46.1,94.7,61.4c0.4,0.2,0.9,0.4,1.3,0.6c1.6,0.5,1,1.5,0.6,2.5c-0.4,1.2-1,1.3-2.2,0.8
		c-11.9-5.2-23.4-11-34.7-17.5c-24-13.8-46.2-30.1-66.4-49.1c-1.5-1.4-2.9-1.9-4.9-1.9c-38.8,0-77.6,0-116.4,0c-5,0-4.3,0.6-4.3-4.4
		c0-66.2,0-132.4,0-198.6c0-0.9-0.1-1.8,0-2.6c0.1-1-0.4-1.6-1.3-2c-7.7-4.2-12.2-10.8-14.8-19.1c-6.5-20.4-13.2-40.8-19.8-61.1
		c-0.3-1.1-0.3-2.4-1.6-3c0-0.2,0-0.4,0-0.6c5.5-0.4,10.9-0.2,16.3,0.4c2.3,0.2,2.3,0.3,3-2c1.5-4.7,3.2-9.4,5.2-14
		c1.3-3,1.1-2.8,3.6-1.3c2.7,1.6,5.3,3.3,7.9,5c1.3,0.8,1.4,0.7,1.5-0.8c0-0.8,0-1.6,0-2.3c0-35.2,0-70.4,0-105.6
		c0-3.8-0.4-3.5,3.4-3.5c8.5,0,17-0.4,25.4-1.1c0.6-0.1,1.6,0.3,1.8-0.5c0.2-0.7-0.7-1.1-1.1-1.5c-9.3-9.3-18.6-18.6-27.9-27.9
		c-0.5-0.5-0.9-1-1.4-1.4c-0.6-0.6-0.7-1.1,0-1.7c0.5-0.5,1-1,1.4-1.4c23.3-23.3,46.6-46.6,69.9-69.9c2.3-2.3,2.3-2.3,4.6,0
		c8.3,8.3,16.7,16.6,25,25.1c1.4,1.4,2.5,1.6,4.3,0.8c16.7-6.9,33.5-13.8,50.3-20.6c0.5-0.2,1.1-0.5,1.6-0.7
		c2.2-0.8,2.8-0.6,3.8,1.7c2.7,6.5,5.3,13,8,19.5c7,17.1,14,34.2,21,51.4c0.7,1.9,1.7,2.7,3.7,3c4.1,0.5,8,1.7,11.8,3.2
		c8.4,3.3,15.4,8.2,19.9,16.4c0.5,1,0.9,1.1,1.5,0.1c6-10.8,16-15.8,27.4-18.7c3.7-0.9,3.2-0.1,3.2-4.1c0-6.1,0-12.3,0-18.4
		c0-3.5,0.3-3.8,3.9-3.8c3.8,0,7.6,0,11.4,0c2.6,0,3,0.5,3.1,3.1c0,6.2,0,12.5,0,18.7c0,1.3,0.1,2.2,1.8,2.2
		c13.2,0.4,26.1,3.2,38.9,6.2c3.1,0.7,6.3,1.5,9.4,2.2c0.9,0.2,1.9,0.7,2.8,0.2c0,0.1-0.1,0.1-0.1,0.2c0.2,0.1,0.2,0,0-0.1
		c-0.1-1.1-1-1.6-1.6-2.4c-14.3-17-28.6-34.1-42.8-51.1c-0.2-0.2-0.4-0.4-0.6-0.7c-1.9-2.3-1.9-2.9,0.4-4.8c4.8-4,9.6-8,14.3-12
		c14-11.8,28.2-23.4,42-35.4c6.2-5.4,13.2-7.6,21.2-7.3c6.9,0.2,13.8,1.4,20.6,2.2c5.1,0.6,10.2,1.3,15.4,0.4
		c2.8-0.5,5.4-1.6,7.6-3.5c4.3-3.7,8.6-7.3,13-10.9c2.3-2,2.7-1.9,4.7,0.4c2.8,3.3,5.6,6.7,8.5,10.1c1.5,1.8,1.6,1.8,2.9,0
		c4.9-6.5,7.6-13.8,8.3-21.8c0.9-11-2.1-20.7-9.4-29.2c-7.7-8.8-15-18-22.6-26.8c-8.3-9.6-3.7-25.7,9.6-28.6
		c6.9-1.6,12.9,0.3,17.6,5.9c11,13.1,21.9,26.1,32.9,39.2c2.2,2.6,4.7,4.7,8.1,5.4c5,1.1,9.3-0.4,12.5-4.4c3.3-4,3.7-8.4,1.9-13.2
		c-0.7-1.8-1.9-3.2-3-4.7c-7.1-9.9-2.2-23.7,9.6-26.5c6.7-1.6,12.6,0.4,17.1,5.6c4.3,5,8.5,10.1,12.8,15.2
		c17.8,21.2,35.6,42.4,53.4,63.6c3.1,3.7,5.1,7.8,4.8,12.8c-0.4,7.2-4,12.4-10.7,15.1c-6.7,2.7-12.9,1.4-18.1-3.6
		c-2.8-2.7-5.1-5.9-7.7-8.8c-2-2.4-4.4-4.1-7.5-4.9c-4.8-1.1-8.9,0.1-12.3,3.6c-3.4,3.6-4.2,7.8-2.8,12.5c0.6,2.2,1.9,4,3.4,5.8
		c6.7,7.9,13.3,15.8,19.9,23.8c7.7,9.4,3.8,23.5-7.6,27.7c-7.1,2.6-14.7,0.7-19.6-5.1c-12.3-14.6-24.9-29-36.8-44
		c-12.5-15.7-34-17.6-48.8-10.8c-3.6,1.7-3.6,1.7-1.1,4.6c2.6,3.1,5.2,6.1,7.7,9.2c1.7,2.1,1.7,2.6-0.4,4.3
		c-3.7,3.2-7.3,6.5-11.2,9.3c-5.4,3.9-7.5,9.3-8.3,15.5c-0.8,6.1-0.9,12.2-1.1,18.4c-0.2,5.1-0.6,10.1-1.8,15.1
		c-1.3,5.7-4.1,10.3-8.7,14.1c-12,9.8-23.8,19.9-35.6,29.8c-0.6,0.5-1.6,0.8-1.4,1.7c0.1,0.3,1.2,0.5,1.9,0.6
		c11.9,2,23.9,3.8,35.9,4.9c11.5,1,22.9,1.7,34.4,1.7c2.2,0,2.2,0,2.3,2.3c0,6.8,0,13.6,0,20.5c0,32.3,0,64.5,0,96.8
		c0,2,0.4,3.4,2.1,4.7c6,4.7,7.7,11,6.5,18.3c-0.3,1.4-0.5,2.9-0.4,4.4c0,0.6,0.2,0.9,1,1c1.9,0.3,3,1.9,3.2,3.5
		c0.1,0.9,0.2,1.4,0.9,1.7c4.1,1.4,7.1,4.4,10.1,7.3c39,38.6,75.9,79,108.5,123.2c11.9,16.2,22.9,33,32.3,50.7
		C1026.4,718.7,1027.2,719.7,1027.3,720.9z"/>
	<path fill="#FFFFFF" d="M637.7,585.2c0,65.9,0,131.8,0,197.7c0,0.9,0,1.8,0,2.6c0,0.3,0.1,0.7,0.2,0.8c0.5,0.3,0.7-0.2,0.9-0.5
		c6.6-8.7,15.8-13,26.2-15.3c12-2.7,24-2.6,36-0.8c10.7,1.5,21.2,4,31.8,6.5c22.9,5.5,45.8,11.1,69.1,14.6
		c17.4,2.6,34.8,4.2,52.4,4.4c4.5,0.1,3.9,0.5,3.9-3.9c0-83.1,0-166.1,0-249.2c0-0.5,0-1,0-1.5c0-2.3-0.1-2.3-2.2-2.3
		c-0.5,0-1,0-1.5,0c-6.9,0-12.1-3-15.8-8.9c-1.6-2.6-2.8-5.3-3.9-8.2c-2.1-5.5-3.6-11.1-5.2-16.7c-1.4-4.8-2.6-9.6-5.1-13.9
		c-0.7-1.1-0.3-1.7,0.5-2.4c0.8-0.7,1.5-1,2.5-0.2c1.9,1.7,4.2,2.8,6.5,3.9c7.5,3.7,15.4,6.7,22.7,10.7c1.2,0.6,1.5,0.3,1.5-1
		c0-3.7,0-7.4,0-11.1c0-33.2,0-66.5,0-99.7c0-4.8,0.4-4-4.1-4c-9.2-0.1-18.3-0.6-27.4-1.4c-13.9-1.2-27.7-3.2-41.4-5.8
		c-1.9-0.4-3.1,0.1-4.4,1.3c-4.7,4-9.4,7.9-14.1,11.9c-0.4,0.4-0.9,0.8-1.4,1.1c-0.9,0.7-1.8,0.6-2.6-0.2c-0.5-0.5-0.9-1-1.3-1.5
		c-5.6-6.6-11.2-13.3-16.7-19.9c-1-1.2-2.1-1.9-3.6-2.3c-9.2-2.1-18.4-4.3-27.6-6.3c-12-2.5-24.2-4.2-36.6-3.2
		c-7.7,0.7-15.3,2.1-22.3,5.4c-5.1,2.4-9.6,5.6-12.9,10.2c-2.7,3.7-4.2,7.7-4.1,12.5C637.7,454.2,637.7,519.7,637.7,585.2z"/>
	<path fill="#FFFFFF" d="M634,585.7c0-65.4,0-130.8,0.1-196.2c0-6.1-2.1-11-6-15.4c-3.9-4.4-8.8-7.3-14.2-9.4
		c-9.5-3.7-19.5-4.6-29.6-4.4c-10,0.2-19.8,1.9-29.5,4.1c-17.7,4-35.3,8.3-52.9,12.2c-28,6.2-56.4,10-85.1,10.3
		c-3.4,0-3.4-0.7-3.4,3.6c0,34.6,0,69.2,0,103.8c0,0.6,0,1.2,0,1.8c0.1,1.6,0.3,1.7,1.7,0.8c3.3-2.2,6.7-4.3,10.3-6
		c2.9-1.4,2.9-1.4,3.9,1.7c4.9,15.2,9.8,30.4,14.8,45.6c1.9,5.7,3.7,11.5,5.8,17.1c3.7,9.9,2.2,19.4-4.2,27.9
		c-1.6,2.1-1.5,1.8,0.3,3.8c2.2,2.4,4.3,4.8,6.4,7.3c0.4,0.4,1.1,0.9,0.8,1.4c-0.4,0.8-1.2,0.3-1.8,0.3c-3.9-0.2-7.8-0.6-11.6-1.1
		c-2-0.3-2-0.3-2.2,1.8c-0.2,2.4-0.4,4.9-0.6,7.3c0,0.4,0.1,1.1-0.5,1.2c-0.5,0.1-0.8-0.4-1.1-0.8c-1-1.2-2-2.4-3.1-3.5
		c-0.2-0.2-0.5-0.5-0.7-0.4c-0.5,0.1-0.3,0.6-0.2,0.9c0,0.3,0.1,0.6,0.2,0.9c4.2,24,10.8,47.2,19.9,69.8c3,7.5,6.3,14.9,9.8,22.2
		c0.2,0.4,0.3,1.1,0.8,1c0.6,0,0.6-0.7,0.7-1.1c1.6-5.5,5.3-9.2,10.2-11.8c5.1-2.6,10.5-3.6,16.2-2.7c5.6,0.9,11.2,1.2,16.9,0.9
		c0.7,0,1.4-0.1,2-0.1c1.9,0.1,2.6,1.1,1.8,2.9c-0.3,0.6-0.7,1.2-1,1.8c-2.4,4.3-4.4,8.7-5.9,13.3c-0.5,1.7-1.1,3.3-1.8,4.9
		c-2.5,5.5-6.4,9.7-11.8,12.6c-4.8,2.5-9.8,2.9-15,1.1c-0.2-0.1-0.6,0-0.8,0c0.1,0.3,0.1,0.6,0.2,0.8c0.3,0.6,0.7,1.2,1,1.8
		c2.8,4.7,5.8,9.2,8.7,13.8c10.4,16.2,22.3,31.2,35.2,45.5c1.1,1.3,2.1,1.5,3.8,1.1c7.1-1.8,14.2-3.5,21.3-5.1
		c12.6-2.9,25.3-5.8,38.3-6.4c11.1-0.5,22,0.4,32.5,4.3c6.4,2.4,12.1,5.9,16.6,11.1c0.7,0.8,1.3,2.6,2.3,2.3c1-0.3,0.4-2.1,0.4-3.2
		C634,717.3,634,651.5,634,585.7z"/>
	<path fill="#FFFFFF" d="M413.4,694.2c0,32.3,0,64.5,0,96.8c0,0.9,0,1.8,0,2.6c0,1.1,0.5,1.6,1.6,1.5c0.7,0,1.4,0,2,0
		c12.9-0.1,25.7-1.1,38.5-2.5c15.1-1.7,30.1-4.4,44.9-7.5c4.8-1,9.5-2.2,14.2-3.2c1-0.2,1.4-0.6,0.5-1.5c-0.3-0.3-0.7-0.7-1-1.1
		c-9.4-10.4-18.1-21.2-26.2-32.6c-0.3-0.4-0.5-0.8-0.9-1.2c-0.5-0.6-0.9-0.6-1.1,0.3c-0.6,2.7-1.6,5.2-3.2,7.5
		c-4,5.4-9.2,9-15.8,10.2c-6.7,1.3-13.4,2.2-19.9,4.7c-2.6,1-3.7,0-3-2.8c1.5-5.9,2.2-11.9,2.4-17.9c0.3-7.3,3-13.7,8.4-18.7
		c4.2-3.9,9.2-5.7,15.1-4.7c1,0.2,2.5,1,3,0.3c0.5-0.8-0.7-1.8-1.3-2.7c-14.7-25-26.2-51.3-34.5-79.1c-4-13.5-7.2-27.1-9.6-40.9
		c-0.1-0.6,0.1-1.5-0.7-1.8c-0.7-0.2-1.1,0.6-1.6,1c-2.2,1.9-4.4,3.8-6.6,5.7c-0.4,0.3-0.7,0.9-1.2,0.6c-0.7-0.3-0.4-1-0.3-1.5
		c0.3-3.1,0.5-6.2,0.9-9.3c0.2-1.4-0.1-2.1-1.6-2.5c-3.2-0.7-3.2-0.8-3.2,2.5c0,0.5,0,1,0,1.5C413.4,630.1,413.4,662.2,413.4,694.2z
		"/>
	<path fill="#FFFFFF" d="M852.4,269.6c-0.2-0.3-0.5-0.7-0.8-1.1c-6.8-8.1-13.7-16.3-20.5-24.4c-0.9-1.1-1.6-1-2.6-0.1
		c-3.3,2.9-6.8,5.5-10,8.5c-4.5,4.2-9.8,5.7-15.8,5.8c-5.5,0.1-10.9-0.7-16.3-1.5c-6.5-0.9-12.9-1.9-19.5-1.5
		c-4.8,0.3-9.1,1.8-12.8,5c-15.3,13-30.7,25.8-46.1,38.7c-0.4,0.4-0.9,0.8-1.3,1.1c-0.8,0.6-0.8,1.2-0.1,1.9c2,2.2,2.9,5,3.6,7.9
		c0.3,1.2,0.6,2.5,1.1,3.6c1.6,4,5.8,6.4,10.1,5.8c1.7-0.2,3.4-0.6,5.2-0.9c7.6-1.3,13.7,2.7,15.7,10.1c0.5,1.7,0.8,3.4,1.4,5.1
		c1.5,4.3,5.8,6.9,10.4,6.2c1.5-0.2,3.1-0.6,4.6-0.8c8.3-1.4,14.3,2.5,16.4,10.7c0.4,1.5,0.7,3,1.2,4.5c1.6,4.2,5.7,6.7,10.2,6.2
		c1.2-0.1,2.3-0.4,3.4-0.6c2.7-0.5,5.4-1.2,8.1-0.1c1.9,0.8,3,0.1,4.4-1c6.4-5.5,12.9-11,19.5-16.3c4.3-3.4,6.7-7.7,7.9-12.9
		c1.1-5.2,1.5-10.4,1.7-15.7c0.2-5.7,0.4-11.5,1.1-17.2c0.9-6.9,3.3-12.9,9.3-17.2c3.3-2.4,6.3-5.2,9.4-7.9
		C851.7,270.8,852.3,270.5,852.4,269.6z"/>
	<path fill="#ACDCF6" d="M447.2,381.7c9.7-0.9,19-2.2,28.3-3.7c20.6-3.4,40.8-8.2,61.1-13.2c1.3-0.3,2.3-0.9,3.2-1.8
		c3.5-3.5,7-7,10.5-10.6c2.6-2.6,2.7-2,0-4.6c-21.6-21.6-43.1-43.1-64.7-64.7c-0.4-0.4-0.9-0.8-1.2-1.2c-0.8-0.9-1.4-0.8-2.1,0.1
		c-0.4,0.5-1,1-1.4,1.5c-15.4,15.4-30.7,30.7-46.1,46.1c-6.4,6.4-12.8,12.8-19.2,19.2c-1,1-1.2,1.7-0.1,2.8
		c9.8,9.7,19.5,19.4,29.2,29.1C445.4,381.4,446.3,381.9,447.2,381.7z"/>
	<path fill="#E5384A" d="M392.8,530.8c-2.2,0-4.5-0.1-6.7,0c-1.8,0.1-1.8,0.2-1.3,1.9c1.4,4.5,2.9,9.1,4.4,13.6
		c2.9,9.1,5.8,18.2,8.9,27.2c3.5,10.4,13.2,17.4,23.9,17.5c11,0.1,20.8-6.4,24.5-16.6c4-10.8,1-20.3-6.5-28.6
		c-3.9-4.3-8.8-7.1-14-9.3C415.3,532.3,404.1,531,392.8,530.8z"/>
	<path fill="#151D38" d="M721.1,795.2c26.4,0,52.8,0,79.3,0c1,0,1.9,0,2.9-0.1c0.2,0,0.5-0.1,0.5-0.1c0-0.3-0.3-0.3-0.6-0.4
		c-0.3,0-0.6,0-0.9-0.1c-14.7-2.2-29.3-5.2-43.9-8.5c-16-3.7-31.9-7.9-48.1-11.1c-12.6-2.5-25.3-3.7-38.1-2
		c-6.9,0.9-13.6,2.6-19.7,5.9c-5.6,3-10.2,7.1-13.1,12.9c-1.7,3.3-1.7,3.4,2.1,3.4C668,795.2,694.5,795.2,721.1,795.2z"/>
	<path fill="#EDCFE4" d="M796.3,363.2c-0.3-0.6-0.7-0.7-1.2-0.7c-2.5-0.1-4.8,0.7-7.2,1.1c-7.6,1.1-13.6-2.8-15.6-10.3
		c-0.4-1.6-0.7-3.2-1.3-4.8c-1.5-4.4-5.9-7-10.6-6.3c-1.1,0.2-2.1,0.4-3.2,0.6c-2,0.3-4,0.9-6.1,0.6c-5.4-0.9-9.3-3.8-11.1-9.2
		c-0.6-1.9-1-4-1.6-5.9c-1.6-4.7-5.9-7.3-10.7-6.5c-1.7,0.3-3.4,0.7-5.2,0.9c-7,1.2-13-2.5-15.2-9.3c-0.5-1.6-0.8-3.2-1.2-4.8
		c-0.4-1.4-1-2.7-1.9-3.9c-0.8-1-1.6-1.3-2.6-0.3c-1,0.9-2.1,1.7-3.1,2.6c-2.4,2.1-2.7,1.5-0.4,4.2c4.7,5.7,9.5,11.3,14.3,17
		c16.6,19.8,33.2,39.6,49.8,59.3c2.6,3.1,1.9,3,5,0.4c8.2-6.9,16.4-13.8,24.6-20.7c1.3-1.1,2.5-2.1,3.8-3.2
		C795.9,363.8,796.1,363.5,796.3,363.2z"/>
	<path fill="#151D38" d="M583.9,795.2c12.5,0,24.9,0,37.4,0c3.2,0,6.4,0,9.6,0c2.6,0,2.6,0,1.6-2.3c-1.5-3.5-3.7-6.4-6.4-8.9
		c-4.5-4.2-9.9-6.8-15.7-8.6c-11-3.3-22.2-3.7-33.6-2.7c-10.7,1-21.1,3.4-31.6,5.8c-6.7,1.5-13.4,3.2-20.1,4.9
		c-1.6,0.4-1.7,0.5-0.5,1.7c2.7,2.8,5.5,5.5,8.2,8.3c1.3,1.4,2.7,1.9,4.6,1.9C552.9,795.1,568.4,795.2,583.9,795.2z"/>
	<path fill="#23984B" d="M485.3,682.9c-5.3,0.1-10.2,1.6-14.3,5.1c-4.3,3.7-6.2,8.4-4.8,14.1c0.7,2.8,0.8,2.9,3,1.2
		c2.7-2,5.4-3.9,8.2-5.6c3.1-1.9,6.3-3.6,9.6-5c2.3-1,3.3-0.9,3.9,0.3c0.6,1.2-0.1,2.1-2.3,3.1c-1.4,0.7-2.8,1.3-4.2,2
		c-4.8,2.4-9.3,5.4-13.5,8.7c-2,1.6-2,1.6-0.2,3.5c0.1,0.1,0.1,0.1,0.2,0.2c4.5,4.4,10.7,5.4,16.4,2.5c5.4-2.7,9.1-6.9,11.1-12.6
		c1.7-4.8,3.3-9.6,5.7-14.1c1-1.8,0.8-2-1.4-2c-1.2,0-2.3,0-3.5,0C494.6,684.2,490,683.3,485.3,682.9z"/>
	<path fill="#23984B" d="M482.7,743.3c0-3.6-1.1-6.4-2.9-8.9c-1.3-1.8-1.4-1.8-3-0.3c-5.2,4.6-9.8,9.7-13.7,15.5
		c-0.4,0.6-0.9,1.3-1.4,1.8c-0.5,0.5-1.2,0.6-1.9,0.2c-0.8-0.4-1.2-1.1-0.9-1.9c0.2-0.6,0.6-1.2,0.9-1.8c1.8-2.8,3.8-5.4,6-7.9
		c2.5-3,5.3-5.7,8.2-8.4c1.5-1.4,1.5-1.6-0.4-2.5c-5.4-2.5-10.5-2-15.1,1.7c-4.6,3.7-7.3,8.6-7.9,14.5c-0.6,5.6-0.5,11.3-1.8,16.8
		c-0.3,1.5,0,1.8,1.5,1.3c4.6-1.5,9.2-2.3,14-3c5.9-0.8,10.9-3.5,14.8-8.1C481.3,749.6,482.7,746.5,482.7,743.3z"/>
	<path fill="#CCD6DA" d="M867.2,521.7c0.2-3.9-1.3-7-3.9-9.8c-2.6-2.7-5.8-4.6-9-6.4c-7.2-3.9-14.9-6.8-22.2-10.4
		c-0.4-0.2-0.9-0.7-1.3-0.4c-0.6,0.5,0,1.1,0.1,1.6c1.6,5.3,3.1,10.7,4.7,16c1.5,4.7,3,9.5,5.4,13.9c3.1,5.9,7.9,9,14.7,8.7
		c2.8-0.1,5.6-0.2,8.3,1.1c1.5,0.7,3.4-1.1,2.9-2.7c-0.7-2.6-0.4-5.2-0.1-7.8C866.9,524.2,867,522.9,867.2,521.7z"/>
	<path fill="#E5384A" d="M404,527.8c0.9,0.3,1.6-0.4,2.3-1.3c3-3.9,6.3-7.4,9.8-10.7c3.7-3.5,7.6-6.7,11.7-9.6
		c1.3-0.9,1.5-1.7,1-3.1c-0.8-2.1-1.4-4.2-2.1-6.4c-0.7-2-0.8-2.1-2.6-1c-10,5.6-18.7,12.6-25.3,22c-1.7,2.5-3.2,5.1-4.5,7.8
		c-0.5,1.1-0.2,1.6,1.1,1.7C398.2,527.3,401,527.2,404,527.8z"/>
	<path fill="#E5384A" d="M441.1,540.5c-0.1-0.3-0.2-0.5-0.3-0.8c-3.2-9.7-6.3-19.4-9.5-29.1c-0.6-1.8-0.7-1.9-2.3-0.7
		c-6.3,4.6-12.1,9.8-17.2,15.7c-0.7,0.8-2,1.6-1.7,2.5c0.3,0.8,1.9,0.6,2.9,0.9c9.7,2,19,5.1,26.7,11.6c0.1,0.1,0.3,0.2,0.5,0.4
		c0.2,0.2,0.5,0.3,0.7,0.1C441.1,541,441,540.8,441.1,540.5z"/>
	<path fill="#151D38" d="M498.1,795.2c4.6,0,9.2,0,13.7,0c5.1,0,10.1,0,15.2,0c0.5,0,1.3,0.3,1.5-0.4c0.2-0.6-0.5-0.9-0.9-1.3
		c-2.1-2.2-4.2-4.3-6.3-6.5c-2.3-2.3-2.3-2.4-5.5-1.6c-14.7,3.5-29.4,6.5-44.4,8.8c-1.1,0.2-2.1,0.3-3.2,0.5c-0.2,0-0.3,0.2-0.5,0.3
		c0.2,0.1,0.3,0.2,0.5,0.2c0.8,0,1.6,0.1,2.3,0.1C479.8,795.2,489,795.2,498.1,795.2z"/>
	<path fill="#E5384A" d="M381.7,510.8c-0.5,0-1.5,0-2.4,0c-1.2-0.1-1.5,0.5-1.2,1.6c1.5,4.5,3,9,4.4,13.6c0.1,0.4,0.2,1.1,0.7,1.1
		c2.1,0.2,4.2,0.2,6.3-0.3c0.3-0.1,0.5-0.6,0.7-0.9c1.7-4.2,3.9-8,6.5-11.7c0.8-1,0.5-1.4-0.7-1.7
		C391.5,511.7,386.9,511.2,381.7,510.8z"/>
	<path fill="#E5384A" d="M409.1,501.2c0-0.7-0.5-0.9-0.9-1.2c-2.3-1.6-4.7-3.1-7-4.7c-1.1-0.8-1.8-0.8-2.3,0.7
		c-1,2.8-2.1,5.6-3.1,8.5c-1.4,4-1.4,4,2.9,4.9c1,0.2,1.8,0.4,2.6-0.5c2.1-2.5,4.6-4.7,7.1-6.9C408.7,501.7,408.9,501.4,409.1,501.2
		z"/>
	<path fill="#151D38" d="M870.9,538.4c-1.1-0.1-2.9,1.7-2.6,2.6c0.5,1.9,1.2,3.7,1.8,5.5c0.3,0.9,0.8,0.9,1.5,0.3
		c1.7-1.5,3.4-2.9,5-4.4c0.3-0.3,0.8-0.8,0.1-1.1C874.8,540.3,872.8,539.3,870.9,538.4z"/>
	<path fill="#151D38" d="M883.4,112.6c0.4,0.6,1,0.5,1.5,0.7c6.6,2,10.8,8.5,9.8,15c-1.1,7.2-6.8,12.2-13.8,12.2
		c-6.9,0-12.7-5.1-13.7-12c-1-6.7,3.3-13.3,9.9-15.2c0.6-0.2,1.2-0.1,1.6-0.6C880.3,112.6,881.8,112.6,883.4,112.6z"/>
	<path fill="#151D38" d="M1027.8,721.5c-0.2-0.2-0.4-0.4-0.6-0.6c0.2,0,0.4,0,0.6,0C1027.8,721.1,1027.8,721.3,1027.8,721.5z"/>
	<path fill="#EDCFE4" d="M861.1,346.5c0.1-0.3,0.2-0.9,0.4-1.4c2-6.5,4-13,6-19.5c0.9-3,1.1-3.1,4.1-2.5c12.7,2.6,25.4,5.3,38,7.9
		c0.6,0.1,1.1,0.3,1.7,0.4c1.2,0.4,1.7,1.2,1.4,2.4c-0.1,0.6-0.3,1.1-0.5,1.7c-2.7,8.8-5.5,17.7-8.2,26.5c-0.2,0.7-0.4,1.3-0.6,1.9
		c-0.5,1.2-1.4,1.6-2.6,1.2c-0.6-0.2-1.1-0.4-1.6-0.6c-11.8-4.9-23.5-9.8-35.3-14.7c-0.5-0.2-1.1-0.5-1.6-0.7
		C861.3,348.6,860.9,347.8,861.1,346.5z"/>
	<path fill="#151D38" d="M691.2,454c12.5,0.8,24.6,3.5,36.8,6.4c17,4,33.8,8.3,50.9,11.7c7.4,1.5,14.7,2.8,22.1,3.9
		c0.3,0,0.6,0.1,0.9,0.1c2,0.4,2.1,0.6,1.9,2.4c-0.2,1.9-1.5,1.4-2.6,1.2c-18.4-2.8-36.5-6.8-54.6-11.1c-13-3.1-25.9-6.4-39-8.8
		c-6.6-1.2-13.3-2.1-20-2.3c-0.9,0-2,0.4-2.3-1.1c-0.4-2,0.1-2.7,2.2-2.6C688.7,453.8,689.9,453.9,691.2,454z"/>
	<path fill="#151D38" d="M690.9,526.9c11.6,0.9,22.9,3.3,34.2,5.9c17.8,4.1,35.5,8.7,53.5,12.3c7.4,1.5,14.7,2.8,22.1,3.9
		c0.4,0.1,0.8,0.1,1.2,0.2c2.1,0.4,2.1,0.5,1.8,2.4c-0.2,1.7-1.3,1.4-2.4,1.2c-9.9-1.6-19.8-3.4-29.6-5.4
		c-17.7-3.7-35.2-8.4-52.9-12.2c-10.5-2.3-21-4.3-31.7-4.6c-1.9,0-2.1-0.4-2-2.3c0.1-1,0.4-1.4,1.4-1.4
		C688,526.9,689.5,526.9,690.9,526.9z"/>
	<path fill="#151D38" d="M689.3,636.7c9.7,0.6,19.3,2.2,28.8,4.4c16.8,3.8,33.5,7.8,50.3,11.7c11,2.5,22.1,4.6,33.3,6.2
		c1.2,0.2,2.4,0.2,2.1,2c-0.3,1.7-0.4,2-2.2,1.7c-5.7-0.9-11.3-1.8-17-2.8c-20.9-3.8-41.4-9.2-62.1-14c-11.7-2.7-23.4-5-35.4-5.5
		c-1.7-0.1-2.5-1.3-1.9-2.9c0.2-0.6,0.6-0.6,1.1-0.7c0.2,0,0.4,0,0.6,0C687.7,636.7,688.5,636.7,689.3,636.7z"/>
	<path fill="#151D38" d="M689.7,417.3c10,0.6,19.7,2.4,29.3,4.5c17.7,3.9,35.2,8.5,52.9,12.3c10,2.1,20.1,4,30.2,5.5
		c1.7,0.3,1.9,0.6,1.7,2.3c-0.2,1.1-0.7,1.5-1.8,1.4c-2-0.3-4.1-0.6-6.1-0.9c-18-3-35.7-7-53.4-11.3c-12.1-2.9-24.2-6-36.5-8.1
		c-6.2-1.1-12.5-1.9-18.9-2.1c-1.8-0.1-2.5-1.2-1.9-2.9c0.2-0.6,0.6-0.7,1.1-0.7C687.5,417.2,688.7,417.3,689.7,417.3z"/>
	<path fill="#151D38" d="M690.5,600.1c10.8,0.7,21.4,2.9,32,5.2c17.7,4,35.3,8.6,53.2,12.3c8.2,1.7,16.4,3.2,24.7,4.4
		c0.6,0.1,1.2,0.2,1.7,0.3c1.7,0.4,2.3,1.5,1.5,3.1c-0.6,1.1-1.5,0.6-2.3,0.5c-3.8-0.6-7.7-1.2-11.5-1.9c-21.3-3.7-42.2-9.1-63.2-14
		c-10.6-2.5-21.3-4.8-32.1-5.9c-2.3-0.2-4.7-0.3-7-0.4c-2-0.1-2.3-0.5-2.2-2.5c0.1-1,0.6-1.3,1.5-1.3c0.2,0,0.4,0,0.6,0
		C688.4,600.1,689.4,600.1,690.5,600.1z"/>
	<path fill="#151D38" d="M689.4,490.4c9.1,0.5,17.8,1.9,26.5,3.8c17.7,4,35.4,8.2,53.2,12.3c10.9,2.5,21.9,4.5,33,6.1
		c1.8,0.3,1.9,0.5,1.7,2.2c-0.1,1.3-0.7,1.6-1.9,1.4c-4.5-0.8-9-1.4-13.5-2.2c-21.2-3.7-42-9.1-62.9-14c-11.1-2.6-22.2-5-33.6-5.8
		c-1.4-0.1-2.7-0.2-4.1-0.3c-2.5-0.1-2.5-0.1-2.5-1.8c0-1.8,0-1.8,2.7-1.8C688.5,490.4,689,490.4,689.4,490.4z"/>
	<path fill="#151D38" d="M688.2,709.8c10.3,0.5,20.1,2.1,29.8,4.3c16.8,3.8,33.5,7.8,50.3,11.7c11,2.5,22.1,4.6,33.3,6.2
		c1,0.1,2.3-0.1,2.2,1.6c-0.1,2-0.4,2.3-2.4,2c-13.3-1.9-26.5-4.6-39.6-7.5c-15.9-3.5-31.6-7.7-47.5-11c-8.9-1.8-17.8-3.3-26.9-3.7
		c-1.1,0-2.4,0.2-2.4-1.7c0.1-1.8,0.1-1.9,2-2C687.6,709.8,688.1,709.8,688.2,709.8z"/>
	<path fill="#151D38" d="M688.8,563.5c10.5,0.6,20.2,2.3,29.8,4.4c16.7,3.8,33.3,7.8,50,11.6c11,2.5,22.1,4.5,33.3,6.2
		c2,0.3,2,0.4,1.9,2.1c-0.1,1.4-0.7,1.8-2.1,1.6c-8.6-1.2-17.1-2.8-25.6-4.5c-18.8-3.8-37.3-8.7-56-12.9
		c-10.8-2.4-21.7-4.5-32.9-4.9c-1.4-0.1-2.2-0.2-2.1-1.9c0.1-1.2,0.4-1.8,1.7-1.7C687.7,563.6,688.6,563.5,688.8,563.5z"/>
	<path fill="#151D38" d="M690.5,673.3c10.7,0.7,21.2,2.8,31.7,5.2c17.8,4,35.4,8.6,53.2,12.3c8.2,1.7,16.4,3.2,24.7,4.5
		c0.8,0.1,1.5,0.4,2.3,0.4c1.7,0.1,1.5,1.1,1.4,2.2c-0.1,1.4-0.9,1.6-2,1.4c-4.1-0.7-8.3-1.3-12.4-2.1c-21.2-3.7-42.1-9.1-63-14
		c-10.7-2.5-21.5-4.9-32.5-5.9c-2.3-0.2-4.7-0.4-7-0.4c-1.5,0-1.7-0.8-1.7-2c0-1.3,0.6-1.7,1.8-1.7
		C688.1,673.3,689.3,673.3,690.5,673.3z"/>
	<path fill="#EDCFE4" d="M788,276.4c13.9,0,25.1,11.2,25.1,25.1c0,13.7-11.2,24.9-24.9,24.9c-13.8,0.1-25.1-11.3-25.1-25.1
		C763.1,287.6,774.2,276.4,788,276.4z"/>
	<path fill="#151D38" d="M860.1,525c0,2.5-2.4,4-4.5,2.8c-0.7-0.4-1.2-1-1.7-1.6c-3.3-3.8-6.7-7.6-10-11.4c-0.4-0.5-0.9-1-1.2-1.6
		c-0.7-1.3-0.3-2.9,0.6-3.7c1.1-1,2.7-1.1,4-0.1c0.4,0.3,0.7,0.7,1,1c3.5,4,6.9,7.9,10.4,11.9C859.4,523.1,860.1,523.9,860.1,525z"
		/>
</g>
</svg>
